<svg width="29" height="29" viewBox="0 0 29 29" fill="none" xmlns="http://www.w3.org/2000/svg">
<path fill-rule="evenodd" clip-rule="evenodd" d="M6.90279 5.60813C6.63113 5.48603 6.3221 5.47683 6.04366 5.58256C5.76522 5.68829 5.54018 5.90029 5.41804 6.17193L2.98875 11.5662C2.8665 11.8376 2.85698 12.1464 2.96227 12.4248C3.06757 12.7032 3.27906 12.9284 3.5503 13.051L5.22374 13.8046C5.35817 13.8653 5.50325 13.8989 5.65068 13.9036C5.79811 13.9082 5.94501 13.8837 6.08299 13.8316C6.22097 13.7794 6.34733 13.7006 6.45485 13.5996C6.56236 13.4987 6.64893 13.3775 6.70962 13.243L9.13891 7.84761C9.26115 7.57623 9.27067 7.26743 9.16538 6.98903C9.06009 6.71063 8.84859 6.48542 8.57735 6.36286L6.90279 5.60813ZM4.91151 12.2648C5.09649 12.3482 5.30702 12.3547 5.49679 12.2829C5.68657 12.2111 5.84003 12.0668 5.92344 11.8818C6.00684 11.6969 6.01335 11.4863 5.94152 11.2966C5.8697 11.1068 5.72543 10.9533 5.54046 10.8699C5.35548 10.7865 5.14495 10.78 4.95518 10.8518C4.7654 10.9236 4.61194 11.0679 4.52853 11.2529C4.44513 11.4379 4.43862 11.6484 4.51045 11.8382C4.58227 12.0279 4.72654 12.1814 4.91151 12.2648ZM24.1639 13.1981C24.3018 13.1458 24.4281 13.0668 24.5354 12.9656C24.6428 12.8645 24.7292 12.7432 24.7897 12.6086C24.8502 12.4741 24.8836 12.329 24.888 12.1815C24.8924 12.0341 24.8677 11.8872 24.8153 11.7493L22.7207 6.2191C22.6685 6.08109 22.5895 5.95472 22.4885 5.84722C22.3874 5.73972 22.2661 5.6532 22.1315 5.5926C21.997 5.532 21.8518 5.49851 21.7043 5.49404C21.5568 5.48958 21.4099 5.51422 21.2719 5.56657L19.5569 6.21685C19.419 6.2692 19.2927 6.3482 19.1854 6.44934C19.078 6.55048 18.9916 6.67179 18.9311 6.80633C18.8706 6.94087 18.8372 7.08601 18.8328 7.23345C18.8284 7.3809 18.8531 7.52777 18.9055 7.66567L21.0012 13.197C21.1067 13.4755 21.3185 13.7006 21.59 13.823C21.8614 13.9454 22.1704 13.9549 22.4489 13.8495L24.1639 13.1981ZM20.8653 7.08277C20.7714 7.11839 20.6854 7.17217 20.6122 7.24103C20.539 7.30989 20.4801 7.39249 20.4389 7.48411C20.3976 7.57573 20.3748 7.67457 20.3718 7.775C20.3687 7.87543 20.3855 7.97548 20.4211 8.06943C20.4567 8.16338 20.5105 8.24939 20.5794 8.32256C20.6482 8.39573 20.7308 8.45462 20.8225 8.49587C20.9141 8.53711 21.0129 8.55991 21.1134 8.56296C21.2138 8.566 21.3138 8.54924 21.4078 8.51362C21.5975 8.44168 21.7509 8.29732 21.8342 8.11229C21.9175 7.92725 21.9239 7.71671 21.852 7.52696C21.78 7.33722 21.6357 7.18383 21.4506 7.10053C21.2656 7.01722 21.0551 7.01084 20.8653 7.08277Z" fill="#0044B0"/>
<path fill-rule="evenodd" clip-rule="evenodd" d="M19.5257 7.4268H19.5346C19.6082 7.42039 19.6797 7.39955 19.7452 7.36549C19.8107 7.33142 19.8688 7.2848 19.9162 7.22827C19.9637 7.17175 19.9995 7.10643 20.0217 7.03605C20.044 6.96567 20.0521 6.8916 20.0457 6.81808C20.0392 6.74455 20.0184 6.67301 19.9844 6.60754C19.9503 6.54207 19.9037 6.48395 19.8471 6.4365C19.7906 6.38904 19.7253 6.35319 19.6549 6.33098C19.5845 6.30877 19.5105 6.30064 19.4369 6.30706H19.428L19.3988 6.31043L19.2909 6.32166L18.8934 6.35985C18.5598 6.39354 18.0982 6.44633 17.5883 6.51371C16.5831 6.64624 15.3376 6.8484 14.5222 7.12019C14.1269 7.2516 13.7091 7.50654 13.3092 7.79855C12.9038 8.09505 12.4838 8.45557 12.0817 8.82957C11.368 9.503 10.6863 10.2095 10.0387 10.9466C9.56815 11.479 9.45921 12.3281 10.0118 12.9301C10.3712 13.3186 10.9327 13.8106 11.6605 14.0307C12.4209 14.2587 13.2969 14.17 14.192 13.5051L15.314 12.7807L15.3342 12.7683C15.4948 12.866 15.7183 13.0345 15.9856 13.258C16.2776 13.5028 16.5943 13.7915 16.8897 14.0689C17.225 14.3849 17.5545 14.7069 17.8781 15.0348L17.9398 15.0988L17.9556 15.1145L17.9612 15.1201L18.0274 15.1875L18.1117 15.2313C18.5643 15.4559 19.0618 15.3751 19.4482 15.2448C19.8502 15.11 20.2501 14.8809 20.5904 14.6552C21.0165 14.3684 21.4201 14.0497 21.7977 13.7016L21.8179 13.6837L21.8236 13.678L21.8247 13.6769C21.8247 13.6769 21.7258 13.3288 21.3395 12.9222L21.0351 13.304L20.7779 14.0453L17.9612 15.1201L18.5317 14.6069L18.2307 13.8016C18.0424 13.6162 17.8523 13.4327 17.6602 13.2513C17.3569 12.966 17.0222 12.6616 16.7055 12.3977C16.3989 12.1394 16.08 11.8945 15.8138 11.7485C15.3713 11.5059 14.9378 11.6856 14.7041 11.8373L13.5496 12.583L13.5339 12.5942C12.9105 13.0615 12.3984 13.0794 11.984 12.9548C11.5347 12.82 11.136 12.492 10.8384 12.1686C10.7452 12.0675 10.7182 11.8732 10.8799 11.6901C11.5037 10.9804 12.1603 10.3001 12.8476 9.65169C13.2295 9.29566 13.6136 8.96659 13.9719 8.7049C14.338 8.4376 14.6457 8.26352 14.8782 8.18603C15.579 7.95242 16.7257 7.76037 17.7354 7.62672C18.2876 7.55416 18.841 7.49163 19.3954 7.43916L19.4998 7.42905L19.5257 7.4268Z" fill="#0044B0"/>
<path d="M18.6741 14.2358C18.5274 14.0871 18.3795 13.9396 18.2305 13.7933L18.5315 14.5986L17.9609 15.1118L20.7777 14.037L21.0349 13.2958L21.3393 12.9139L21.0529 12.8533L21.0495 12.8555L21.0338 12.8701L20.9731 12.9263C20.6571 13.2114 20.3212 13.4738 19.9679 13.7113C19.6647 13.9135 19.3581 14.082 19.0885 14.1718C18.8796 14.2426 18.7494 14.2482 18.6741 14.2358Z" fill="#1E1E1E"/>
<path fill-rule="evenodd" clip-rule="evenodd" d="M8.47606 8.50785L8.2548 7.99122L8.03355 7.47459L8.07848 7.45662L8.20539 7.40271C8.82806 7.13833 9.45329 6.88 10.081 6.62776C10.5908 6.42206 11.1045 6.22623 11.6219 6.04037C11.8499 5.95951 12.0622 5.88988 12.2396 5.83934C12.3923 5.79554 12.5878 5.745 12.7473 5.745C12.8933 5.745 13.0471 5.77869 13.174 5.81238C13.3111 5.84945 13.4616 5.89886 13.6143 5.95502C13.922 6.06733 14.2691 6.21333 14.5903 6.35485C14.9649 6.52227 15.3364 6.69676 15.7044 6.87822L15.7785 6.91416L15.7987 6.92426L15.8055 6.92763C15.9388 6.99421 16.0402 7.111 16.0874 7.25233C16.1345 7.39366 16.1236 7.54794 16.0571 7.68124C15.9905 7.81454 15.8737 7.91593 15.7324 7.96311C15.591 8.01029 15.4368 7.99939 15.3035 7.93282L15.2978 7.92945L15.2799 7.92046L15.2102 7.88677C14.8543 7.71176 14.4952 7.54326 14.1332 7.38137C13.8368 7.24782 13.536 7.12421 13.2313 7.01074C13.1172 6.96862 13.0014 6.93116 12.8843 6.89843C12.8404 6.88599 12.7957 6.87624 12.7506 6.86923L12.7405 6.87148C12.7181 6.87485 12.6585 6.8872 12.5473 6.91865C12.3615 6.97361 12.1772 7.03391 11.9948 7.09947C11.559 7.25333 11.0233 7.46111 10.4988 7.67113C9.87809 7.91973 9.25998 8.17469 8.64452 8.43597L8.51986 8.48876L8.47606 8.50785ZM7.73817 8.21247C7.67972 8.07559 7.67799 7.92111 7.73338 7.78296C7.78877 7.64481 7.89673 7.5343 8.03355 7.47571L8.2548 7.99234L8.47606 8.50785C8.40822 8.53697 8.33531 8.55242 8.26149 8.55334C8.18768 8.55425 8.1144 8.54059 8.04587 8.51316C7.97733 8.48572 7.91488 8.44505 7.86208 8.39345C7.80929 8.34186 7.76718 8.28036 7.73817 8.21247ZM5.60089 12.66C5.65154 12.6064 5.71227 12.5632 5.77959 12.5331C5.84691 12.5029 5.91952 12.4863 5.99326 12.4843C6.067 12.4822 6.14042 12.4946 6.20934 12.5209C6.27826 12.5472 6.34133 12.5869 6.39493 12.6375L6.00858 13.0452L5.62335 13.454C5.56972 13.4034 5.5266 13.3427 5.49645 13.2753C5.46629 13.208 5.4497 13.1354 5.44761 13.0617C5.44553 12.9879 5.45799 12.9145 5.48429 12.8456C5.51059 12.7767 5.55021 12.7136 5.60089 12.66ZM10.7335 16.464L13.8367 17.6275C14.1395 17.741 14.4686 17.7649 14.7847 17.6964C15.1007 17.6279 15.3904 17.4699 15.6191 17.2412L17.9664 14.8939C18.0718 14.7886 18.2148 14.7295 18.3638 14.7296C18.5128 14.7297 18.6557 14.789 18.761 14.8944C18.8663 14.9999 18.9253 15.1428 18.9252 15.2918C18.9251 15.4409 18.8658 15.5837 18.7604 15.689L16.4131 18.0363C16.0318 18.4172 15.549 18.6803 15.0222 18.7942C14.4955 18.9082 13.947 18.8681 13.4425 18.6788L10.2753 17.4916L10.2495 17.4793C10.0777 17.384 9.9146 17.2739 9.76202 17.1502C9.58008 17.0109 9.36669 16.8357 9.13645 16.6403C8.62095 16.1995 8.11249 15.7506 7.61126 15.2937C6.99882 14.7374 6.39119 14.1758 5.78845 13.609L5.66603 13.4945L5.62335 13.454L6.00858 13.0452L6.39493 12.6375L6.43649 12.6768L6.55666 12.7903C7.15476 13.3523 7.75752 13.9094 8.36487 14.4615C8.8815 14.9298 9.41498 15.4049 9.86198 15.7845C10.0866 15.9743 10.2854 16.136 10.446 16.2607C10.5942 16.3741 10.6875 16.437 10.7335 16.4629M6.92953 18.8629C7.025 18.7491 7.1617 18.6777 7.30969 18.6645C7.45768 18.6512 7.60489 18.6971 7.71908 18.7922L8.79614 19.6907C9.03751 19.8922 9.33046 20.0221 9.64185 20.0658L11.03 20.2612C11.1047 20.2694 11.177 20.2925 11.2426 20.3291C11.3082 20.3658 11.3657 20.4152 11.4119 20.4745C11.458 20.5337 11.4918 20.6017 11.5113 20.6742C11.5307 20.7468 11.5353 20.8225 11.525 20.897C11.5146 20.9714 11.4894 21.0429 11.4509 21.1074C11.4123 21.1719 11.3613 21.228 11.3007 21.2724C11.2401 21.3168 11.1712 21.3486 11.098 21.3659C11.0249 21.3832 10.9491 21.3856 10.875 21.3731L9.48573 21.1788C8.96672 21.1059 8.47847 20.8892 8.07623 20.5532L6.99916 19.6547C6.94247 19.6074 6.89565 19.5494 6.8614 19.484C6.82715 19.4186 6.80614 19.3471 6.79957 19.2735C6.793 19.2 6.80099 19.1258 6.8231 19.0554C6.84521 18.9849 6.88212 18.9195 6.92953 18.8629Z" fill="#0044B0"/>
<path fill-rule="evenodd" clip-rule="evenodd" d="M14.0389 26.9547C21.1718 26.9547 26.9547 21.1718 26.9547 14.0389C26.9547 6.90602 21.1718 1.12311 14.0389 1.12311C6.90602 1.12311 1.12311 6.90602 1.12311 14.0389C1.12311 21.1718 6.90602 26.9547 14.0389 26.9547ZM14.0389 28.0778C21.7929 28.0778 28.0778 21.7929 28.0778 14.0389C28.0778 6.28494 21.7929 0 14.0389 0C6.28494 0 0 6.28494 0 14.0389C0 21.7929 6.28494 28.0778 14.0389 28.0778Z" fill="#1E1E1E"/>
</svg>
