<svg width="26" height="27" viewBox="0 0 26 27" fill="none" xmlns="http://www.w3.org/2000/svg">
<path d="M12.7175 -0.00292969C12.9613 -0.00292969 13.2052 0.0500818 13.4278 0.150804L23.4152 4.38642C24.5814 4.87943 25.4508 6.02978 25.4455 7.41868C25.419 12.6774 23.2562 22.299 14.1223 26.6724C13.237 27.0965 12.2086 27.0965 11.3233 26.6724C2.1841 22.299 0.0265299 12.6774 2.41122e-05 7.41868C-0.00527704 6.02978 0.864111 4.87943 2.03036 4.38642L12.0124 0.150804C12.2351 0.0500818 12.4736 -0.00292969 12.7175 -0.00292969ZM12.7175 3.53824V23.5819C20.0331 20.0407 21.9998 12.195 22.0475 7.49819L12.7175 3.54354V3.53824Z" fill="#0031A4"/>
</svg>
